<svg width="111" height="111" viewBox="0 0 111 111" fill="none" xmlns="http://www.w3.org/2000/svg">
<mask id="path-1-inside-1_2_107" fill="white">
<path d="M69.1848 39.7583C71.0532 41.6964 72.503 44.0015 73.4514 46.542C74.3998 49.0825 74.8282 51.8086 74.7121 54.5647C74.596 57.3208 73.9377 60.0529 72.7748 62.605C71.6119 65.1572 69.9672 67.4793 67.9346 69.4389L62.7912 64.1039C64.0891 62.8526 65.1392 61.3699 65.8818 59.7404C66.6243 58.1108 67.0446 56.3664 67.1187 54.6066C67.1928 52.8468 66.9193 51.1061 66.3138 49.484C65.7082 47.8619 64.7825 46.3901 63.5895 45.1526L69.1848 39.7583Z"/>
</mask>
<path d="M69.1848 39.7583C71.0532 41.6964 72.503 44.0015 73.4514 46.542C74.3998 49.0825 74.8282 51.8086 74.7121 54.5647C74.596 57.3208 73.9377 60.0529 72.7748 62.605C71.6119 65.1572 69.9672 67.4793 67.9346 69.4389L62.7912 64.1039C64.0891 62.8526 65.1392 61.3699 65.8818 59.7404C66.6243 58.1108 67.0446 56.3664 67.1187 54.6066C67.1928 52.8468 66.9193 51.1061 66.3138 49.484C65.7082 47.8619 64.7825 46.3901 63.5895 45.1526L69.1848 39.7583Z" fill="#D9D9D9" stroke="black" stroke-width="6" mask="url(#path-1-inside-1_2_107)"/>
<mask id="path-2-inside-2_2_107" fill="white">
<path d="M75.6973 32.4381C78.538 35.3847 80.7423 38.8893 82.1842 42.7517C83.626 46.6142 84.2773 50.7589 84.1008 54.9492C83.9243 59.1394 82.9235 63.2932 81.1555 67.1734C79.3875 71.0535 76.8869 74.5841 73.7965 77.5634L68.4628 72.0308C70.7911 69.7861 72.6751 67.1261 74.0072 64.2027C75.3393 61.2792 76.0933 58.1496 76.2263 54.9926C76.3593 51.8355 75.8686 48.7128 74.7822 45.8027C73.6959 42.8926 72.0351 40.2521 69.8948 38.0321L75.6973 32.4381Z"/>
</mask>
<path d="M75.6973 32.4381C78.538 35.3847 80.7423 38.8893 82.1842 42.7517C83.626 46.6142 84.2773 50.7589 84.1008 54.9492C83.9243 59.1394 82.9235 63.2932 81.1555 67.1734C79.3875 71.0535 76.8869 74.5841 73.7965 77.5634L68.4628 72.0308C70.7911 69.7861 72.6751 67.1261 74.0072 64.2027C75.3393 61.2792 76.0933 58.1496 76.2263 54.9926C76.3593 51.8355 75.8686 48.7128 74.7822 45.8027C73.6959 42.8926 72.0351 40.2521 69.8948 38.0321L75.6973 32.4381Z" fill="#D9D9D9" stroke="black" stroke-width="6" mask="url(#path-2-inside-2_2_107)"/>
<mask id="path-3-inside-3_2_107" fill="white">
<path d="M84.7789 27.1212C88.2125 30.6828 90.8542 34.9405 92.5532 39.6514C94.2522 44.3622 94.9752 49.4338 94.6809 54.5767C94.3866 59.7196 93.0807 64.833 90.8379 69.6249C88.5951 74.4169 85.4593 78.7936 81.6095 82.5051L76.2719 76.9686C79.3358 74.0147 81.8315 70.5315 83.6165 66.7178C85.4014 62.904 86.4407 58.8345 86.6749 54.7415C86.9092 50.6485 86.3338 46.6121 84.9816 42.863C83.6294 39.1138 81.527 35.7252 78.7943 32.8907L84.7789 27.1212Z"/>
</mask>
<path d="M84.7789 27.1212C88.2125 30.6828 90.8542 34.9405 92.5532 39.6514C94.2522 44.3622 94.9752 49.4338 94.6809 54.5767C94.3866 59.7196 93.0807 64.833 90.8379 69.6249C88.5951 74.4169 85.4593 78.7936 81.6095 82.5051L76.2719 76.9686C79.3358 74.0147 81.8315 70.5315 83.6165 66.7178C85.4014 62.904 86.4407 58.8345 86.6749 54.7415C86.9092 50.6485 86.3338 46.6121 84.9816 42.863C83.6294 39.1138 81.527 35.7252 78.7943 32.8907L84.7789 27.1212Z" fill="#D9D9D9" stroke="black" stroke-width="6" mask="url(#path-3-inside-3_2_107)"/>
<path d="M30.6321 59.8449C29.6415 59.1212 29.1462 58.7594 28.8242 58.4151C27.0268 56.4931 27.0268 53.5069 28.8242 51.5849C29.1462 51.2406 29.6415 50.8788 30.6321 50.1551L51.2107 35.1219C52.5681 34.1303 53.2468 33.6345 53.7535 33.4138C56.6336 32.1595 59.9432 33.8404 60.6293 36.9059C60.75 37.4452 60.75 38.2858 60.75 39.9668V70.0332C60.75 71.7142 60.75 72.5548 60.6293 73.0941C59.9432 76.1596 56.6336 77.8405 53.7535 76.5862C53.2468 76.3655 52.5681 75.8697 51.2107 74.8781L30.6321 59.8449Z" fill="black"/>
</svg>
