<svg width="65" height="62" viewBox="0 0 65 62" fill="none" xmlns="http://www.w3.org/2000/svg">
<circle cx="53" cy="31.0001" r="10.5" fill="#D9D9D9" stroke="black" stroke-width="3"/>
<line x1="45.0607" y1="22.9394" x2="59.9099" y2="37.7886" stroke="black" stroke-width="3"/>
<path d="M6.63209 35.8449C5.64147 35.1212 5.14616 34.7594 4.82423 34.4151C3.02684 32.4931 3.02684 29.5069 4.82423 27.5849C5.14616 27.2406 5.64147 26.8788 6.6321 26.1551L27.2107 11.1219C28.5681 10.1303 29.2468 9.63447 29.7535 9.41379C32.6336 8.15947 35.9432 9.84042 36.6293 12.9059C36.75 13.4452 36.75 14.2858 36.75 15.9668V46.0332C36.75 47.7142 36.75 48.5548 36.6293 49.0941C35.9432 52.1596 32.6336 53.8405 29.7535 52.5862C29.2468 52.3655 28.5681 51.8697 27.2107 50.8781L6.63209 35.8449Z" fill="#0B0B0B"/>
</svg>
