<svg width="57" height="70" viewBox="0 0 57 70" fill="none" xmlns="http://www.w3.org/2000/svg">
<mask id="path-1-inside-1_2_42" fill="white">
<path d="M9.32441 37.3763C7.97384 33.4938 7.80492 29.2979 8.839 25.3194C9.87308 21.3408 12.0637 17.7583 15.1339 15.0247C18.2041 12.2912 22.0159 10.5294 26.0873 9.96226C30.1587 9.3951 34.3069 10.048 38.0073 11.8384L33.9906 20.1401C31.9321 19.1442 29.6246 18.781 27.3597 19.0965C25.0949 19.412 22.9744 20.392 21.2666 21.9126C19.5587 23.4332 18.3401 25.4261 17.7649 27.6393C17.1896 29.8525 17.2836 32.1866 18.0349 34.3464L9.32441 37.3763Z"/>
</mask>
<path d="M9.32441 37.3763C7.97384 33.4938 7.80492 29.2979 8.839 25.3194C9.87308 21.3408 12.0637 17.7583 15.1339 15.0247C18.2041 12.2912 22.0159 10.5294 26.0873 9.96226C30.1587 9.3951 34.3069 10.048 38.0073 11.8384L33.9906 20.1401C31.9321 19.1442 29.6246 18.781 27.3597 19.0965C25.0949 19.412 22.9744 20.392 21.2666 21.9126C19.5587 23.4332 18.3401 25.4261 17.7649 27.6393C17.1896 29.8525 17.2836 32.1866 18.0349 34.3464L9.32441 37.3763Z" fill="#D9D9D9" stroke="black" stroke-width="8" mask="url(#path-1-inside-1_2_42)"/>
<path d="M48.7488 27.4895L27.2092 20.4125L40.9245 6.20997L48.7488 27.4895Z" fill="#030303"/>
<mask id="path-3-inside-2_2_42" fill="white">
<path d="M52.1576 33.1441C53.025 37.1623 52.6813 41.3475 51.1701 45.1703C49.6588 48.9932 47.0479 52.2821 43.6675 54.6211C40.2871 56.9601 36.289 58.2442 32.1787 58.311C28.0685 58.3777 24.0308 57.2241 20.5763 54.9961L25.5748 47.2458C27.4965 48.4852 29.7426 49.1269 32.029 49.0897C34.3154 49.0526 36.5395 48.3383 38.4199 47.0372C40.3004 45.736 41.7528 43.9065 42.5935 41.7799C43.4341 39.6533 43.6253 37.3252 43.1428 35.0899L52.1576 33.1441Z"/>
</mask>
<path d="M52.1576 33.1441C53.025 37.1623 52.6813 41.3475 51.1701 45.1703C49.6588 48.9932 47.0479 52.2821 43.6675 54.6211C40.2871 56.9601 36.289 58.2442 32.1787 58.311C28.0685 58.3777 24.0308 57.2241 20.5763 54.9961L25.5748 47.2458C27.4965 48.4852 29.7426 49.1269 32.029 49.0897C34.3154 49.0526 36.5395 48.3383 38.4199 47.0372C40.3004 45.736 41.7528 43.9065 42.5935 41.7799C43.4341 39.6533 43.6253 37.3252 43.1428 35.0899L52.1576 33.1441Z" fill="#D9D9D9" stroke="black" stroke-width="8" mask="url(#path-3-inside-2_2_42)"/>
<path d="M11.8222 38.1527L32.3388 47.8019L16.9949 60.2271L11.8222 38.1527Z" fill="#030303"/>
</svg>
