<svg width="38" height="40" viewBox="0 0 38 40" fill="none" xmlns="http://www.w3.org/2000/svg">
<path d="M31.2602 39.6318C32.1544 39.7183 32.95 39.0578 33.0371 38.1565L34.457 23.4701C34.5441 22.5688 33.8898 21.7681 32.9956 21.6817C32.1014 21.5952 31.3058 22.2557 31.2187 23.157L29.9565 36.2116L17.0032 34.9593C16.109 34.8728 15.3134 35.5333 15.2263 36.4346C15.1392 37.3358 15.7934 38.1365 16.6877 38.223L31.2602 39.6318ZM0.74352 3.04319L30.1614 39.0432L32.6744 36.9568L3.25648 0.956812L0.74352 3.04319Z" fill="black"/>
<path d="M37.6253 4.01081C37.6615 3.10604 36.9632 2.34347 36.0655 2.30757L21.4377 1.72247C20.5401 1.68657 19.783 2.39093 19.7469 3.29569C19.7107 4.20046 20.409 4.96303 21.3066 4.99894L34.3092 5.51902L33.7849 18.6249C33.7488 19.5296 34.4471 20.2922 35.3447 20.3281C36.2424 20.364 36.9994 19.6597 37.0356 18.7549L37.6253 4.01081ZM3.10294 36.785L37.1029 5.15017L34.8971 2.74143L0.897064 34.3763L3.10294 36.785Z" fill="black"/>
</svg>
